<?xml version="1.0" encoding="utf-8"?>
<!-- Generator: Adobe Illustrator 16.0.4, SVG Export Plug-In . SVG Version: 6.00 Build 0)  -->
<!DOCTYPE svg PUBLIC "-//W3C//DTD SVG 1.1//EN" "http://www.w3.org/Graphics/SVG/1.1/DTD/svg11.dtd">
<svg version="1.1" id="SPENTAYLOR_1_" xmlns="http://www.w3.org/2000/svg" xmlns:xlink="http://www.w3.org/1999/xlink" x="0px" y="0px" width="100%" viewBox="0 0 997.083 115.22" enable-background="new 0 0 997.083 115.22" style="max-width: 900px;">
	<g id="Fill">
		<path id="S_1_" fill="#FFFFFF" d="M39.472,28.77c-2.1,1.728-3.15,4.014-3.15,6.86c0,2.848,1.282,5.11,3.85,6.79
			c2.566,1.68,8.492,3.664,17.78,5.95c9.286,2.288,16.496,5.718,21.63,10.29c5.132,4.574,7.7,11.249,7.7,20.02
			c0,8.773-3.29,15.891-9.87,21.35c-6.58,5.461-15.238,8.19-25.97,8.19c-15.494,0-29.448-5.74-41.86-17.22l13.02-15.961
			c10.546,9.24,20.3,13.86,29.26,13.86c4.012,0,7.162-0.862,9.45-2.59c2.286-1.726,3.43-4.06,3.43-7s-1.214-5.272-3.64-7
			c-2.428-1.726-7.234-3.476-14.42-5.25c-11.388-2.706-19.718-6.23-24.99-10.57c-5.274-4.34-7.91-11.152-7.91-20.44
			c0-9.286,3.336-16.45,10.01-21.49C30.464,9.52,38.794,7,48.782,7c6.532,0,13.066,1.12,19.6,3.36
			c6.532,2.24,12.226,5.414,17.08,9.52l-11.06,15.96c-8.494-6.44-17.268-9.66-26.32-9.66C44.442,26.18,41.572,27.043,39.472,28.77z"
			/>
		<path id="P_1_" fill="#FFFFFF" d="M173.31,17.99c6.86,5.834,10.29,14.794,10.29,26.88c0,12.088-3.524,20.93-10.57,26.53
			c-7.048,5.601-17.804,8.4-32.27,8.4h-13.02v27.3H105.9V9.24h34.58C155.506,9.24,166.45,12.158,173.31,17.99z M157.28,56.49
			c2.612-2.94,3.92-7.232,3.92-12.88c0-5.646-1.704-9.66-5.11-12.04c-3.408-2.38-8.704-3.57-15.89-3.57h-12.46v32.9h14.7
			C149.72,60.899,154.666,59.43,157.28,56.49z"/>
		<path id="E_1_" fill="#FFFFFF" d="M271.238,9.24V28.7h-48.72v20.16h43.82v18.62h-43.82v20.3h50.26v19.32h-72.1V9.24H271.238z"/>
		<path id="N_1_" fill="#FFFFFF" d="M360.697,9.24h21.84v97.86h-21.84l-46.62-61.32v61.32h-21.84V9.24h20.44l48.02,63V9.24z"/>
		<path id="T_1_" fill="#FFFFFF" d="M485.015,28.14v78.96h-21.841V28.14h-27.72V9.24h77.281v18.9H485.015z"/>
		<path id="A_1_" fill="#FFFFFF" d="M591.272,107.1l-9.1-21.141h-41.02l-9.1,21.141h-23.24l42.279-97.86h21.141l42.279,97.86H591.272
			z M561.733,38.359l-12.32,28.42h24.5L561.733,38.359z"/>
		<path id="Y_1_" fill="#FFFFFF" d="M661.131,107.1h-21.84V68.459L605.413,9.24h23.66l21.139,36.4l21.141-36.4h23.66l-33.881,59.219
			V107.1z"/>
		<path id="L_1_" fill="#FFFFFF" d="M705.512,107.1V9.24h21.84v78.4h41.719v19.46H705.512z"/>
		<path id="O_1_" fill="#FFFFFF" d="M864.692,93.59c-9.895,9.66-22.074,14.49-36.541,14.49c-14.469,0-26.648-4.83-36.539-14.49
			c-9.895-9.66-14.84-21.676-14.84-36.05c0-14.372,4.945-26.39,14.84-36.05C801.502,11.83,813.682,7,828.151,7
			c14.467,0,26.646,4.83,36.541,14.49c9.891,9.66,14.84,21.678,14.84,36.05C879.532,71.914,874.583,83.93,864.692,93.59z
			 M857.272,57.609c0-8.726-2.801-16.17-8.4-22.33c-5.6-6.16-12.484-9.24-20.65-9.24c-8.168,0-15.051,3.08-20.65,9.24
			c-5.6,6.16-8.4,13.604-8.4,22.33c0,8.729,2.801,16.148,8.4,22.26c5.6,6.115,12.482,9.17,20.65,9.17
			c8.166,0,15.051-3.055,20.65-9.17C854.471,73.758,857.272,66.338,857.272,57.609z"/>
		<path id="R_1_" fill="#FFFFFF" d="M977.389,41.72c0,15.68-6.207,25.808-18.619,30.38l24.779,35H956.67l-21.701-31.221H919.85V107.1
			h-21.84V9.24h37.1c15.211,0,26.062,2.568,32.551,7.7C974.145,22.074,977.389,30.333,977.389,41.72z M951.069,53.34
			c2.707-2.426,4.061-6.276,4.061-11.55c0-5.272-1.4-8.89-4.199-10.85c-2.801-1.96-7.701-2.94-14.701-2.94H919.85v28.98h15.959
			C943.276,56.979,948.362,55.768,951.069,53.34z"/>
	</g>
	<g id="Outlines">
		<g id="S">
			<defs>
				<path id="SVGID_1_" d="M48.782,7c6.532,0,13.066,1.12,19.6,3.359c6.532,2.24,12.226,5.414,17.08,9.521l-11.06,15.96
					c-8.494-6.44-17.268-9.66-26.32-9.66c-3.64,0-6.51,0.864-8.61,2.59c-2.1,1.729-3.15,4.015-3.15,6.86
					c0,2.848,1.282,5.11,3.85,6.79c2.566,1.68,8.492,3.664,17.78,5.95c9.286,2.288,16.496,5.718,21.63,10.29
					c5.132,4.574,7.7,11.248,7.7,20.02c0,8.773-3.29,15.891-9.87,21.35c-6.58,5.461-15.238,8.19-25.97,8.19
					c-15.494,0-29.448-5.74-41.86-17.22l13.02-15.961c10.546,9.24,20.3,13.86,29.26,13.86c4.012,0,7.162-0.862,9.45-2.59
					c2.286-1.726,3.43-4.06,3.43-7s-1.214-5.272-3.64-7c-2.428-1.726-7.234-3.476-14.42-5.25
					c-11.388-2.706-19.718-6.229-24.99-10.569c-5.274-4.341-7.91-11.152-7.91-20.44c0-9.286,3.336-16.45,10.01-21.49
					C30.464,9.52,38.794,7,48.782,7 M48.782,0C37.283,0,27.456,3.02,19.573,8.975C11.086,15.384,6.782,24.493,6.782,36.05
					c0,11.437,3.52,20.132,10.461,25.845c1.347,1.109,2.834,2.163,4.467,3.164l-4.533,5.557L4.158,86.574L0,91.672l4.829,4.467
					C18.518,108.8,34.201,115.22,51.442,115.22c12.359,0,22.601-3.298,30.44-9.803c8.229-6.827,12.4-15.823,12.4-26.737
					c0-10.812-3.379-19.306-10.042-25.245c-5.973-5.318-14.253-9.309-24.613-11.861c-11.849-2.917-14.952-4.572-15.621-5.01
					c-0.685-0.448-0.685-0.59-0.685-0.934c0-0.897,0.226-1.148,0.598-1.455c1-0.822,2.815-0.995,4.162-0.995
					c7.554,0,14.779,2.695,22.09,8.238l5.822,4.414l4.161-6.005l11.06-15.961l3.621-5.226l-4.854-4.105
					C84.484,9.884,77.98,6.251,70.653,3.738C63.416,1.258,56.058,0,48.782,0L48.782,0z M51.862,81.899
					c-7.172,0-15.464-4.079-24.646-12.125l-5.112-4.479c5.785,3.466,13.351,6.288,22.93,8.567c8.777,2.168,11.414,3.726,12.013,4.152
					c0.613,0.436,0.696,0.656,0.696,1.294c0,0.841-0.188,1.065-0.648,1.413C56.075,81.492,54.266,81.899,51.862,81.899L51.862,81.899
					z"/>
			</defs>
			<clipPath id="SVGID_2_">
				<use xlink:href="#SVGID_1_"  overflow="visible"/>
			</clipPath>
			<linearGradient id="SVGID_3_" gradientUnits="userSpaceOnUse" x1="500.0415" y1="-3" x2="500.0415" y2="117.1001">
				<stop  offset="0" style="stop-color:#F15C6F"/>
				<stop  offset="1" style="stop-color:#43BFB4"/>
			</linearGradient>
			<rect x="-4.458" y="-3" clip-path="url(#SVGID_2_)" fill="url(#SVGID_3_)" width="1009" height="120.1"/>
		</g>
		<g id="P">
			<defs>
				<path id="SVGID_4_" d="M140.48,9.24c15.026,0,25.97,2.918,32.83,8.75c6.86,5.834,10.29,14.794,10.29,26.88
					c0,12.088-3.524,20.93-10.57,26.529c-7.048,5.601-17.804,8.4-32.27,8.4h-13.02v27.3H105.9V9.24H140.48 M127.74,60.899h14.7
					c7.28,0,12.226-1.47,14.84-4.409c2.612-2.94,3.92-7.232,3.92-12.881c0-5.646-1.704-9.659-5.11-12.039
					c-3.408-2.381-8.704-3.57-15.89-3.57h-12.46V60.899 M140.48,2.24H105.9h-7v7V107.1v7h7h21.84h7v-7V86.8h6.02
					c16.244,0,28.224-3.245,36.625-9.92c8.769-6.97,13.215-17.738,13.215-32.01c0-14.177-4.292-25.015-12.755-32.213
					C169.599,5.647,157.377,2.24,140.48,2.24L140.48,2.24z M134.74,35h5.46c7.461,0,10.647,1.446,11.882,2.309
					c0.523,0.365,2.118,1.48,2.118,6.301c0,2.649-0.374,6.229-2.153,8.231c-0.305,0.342-2.206,2.059-9.607,2.059h-7.7V35L134.74,35z"
					/>
			</defs>
			<clipPath id="SVGID_5_">
				<use xlink:href="#SVGID_4_"  overflow="visible"/>
			</clipPath>
			<linearGradient id="SVGID_6_" gradientUnits="userSpaceOnUse" x1="500.0415" y1="-3" x2="500.0415" y2="117.1001">
				<stop  offset="0" style="stop-color:#F15C6F"/>
				<stop  offset="1" style="stop-color:#43BFB4"/>
			</linearGradient>
			<rect x="-4.458" y="-3" clip-path="url(#SVGID_5_)" fill="url(#SVGID_6_)" width="1009" height="120.1"/>
		</g>
		<g id="E">
			<defs>
				<path id="SVGID_7_" d="M271.238,9.24V28.7h-48.72v20.159h43.82v18.62h-43.82v20.3h50.26v19.32h-72.1V9.24H271.238 M278.238,2.24
					h-7h-70.56h-7v7V107.1v7h7h72.1h7v-7v-19.32v-7h-7h-43.26v-6.3h36.82h7v-7v-18.62v-7h-7h-36.82V35.7h41.72h7v-7V9.24V2.24
					L278.238,2.24z"/>
			</defs>
			<clipPath id="SVGID_8_">
				<use xlink:href="#SVGID_7_"  overflow="visible"/>
			</clipPath>
			<linearGradient id="SVGID_9_" gradientUnits="userSpaceOnUse" x1="500.0415" y1="-3" x2="500.0415" y2="117.1001">
				<stop  offset="0" style="stop-color:#F15C6F"/>
				<stop  offset="1" style="stop-color:#43BFB4"/>
			</linearGradient>
			<rect x="-4.458" y="-3" clip-path="url(#SVGID_8_)" fill="url(#SVGID_9_)" width="1009" height="120.1"/>
		</g>
		<g id="N">
			<defs>
				<path id="SVGID_10_" d="M382.537,9.24V107.1h-21.84l-46.62-61.319V107.1h-21.84V9.24h20.44l48.02,63v-63H382.537 M389.537,2.24
					h-7h-21.84h-7v7v42.269L318.244,4.996l-2.102-2.756h-3.466h-20.44h-7v7V107.1v7h7h21.84h7v-7V66.553l34.048,44.783l2.101,2.764
					h3.471h21.84h7v-7V9.24V2.24L389.537,2.24z"/>
			</defs>
			<clipPath id="SVGID_11_">
				<use xlink:href="#SVGID_10_"  overflow="visible"/>
			</clipPath>
			<linearGradient id="SVGID_12_" gradientUnits="userSpaceOnUse" x1="500.0415" y1="-3" x2="500.0415" y2="117.1001">
				<stop  offset="0" style="stop-color:#F15C6F"/>
				<stop  offset="1" style="stop-color:#43BFB4"/>
			</linearGradient>
			<rect x="-4.458" y="-3" clip-path="url(#SVGID_11_)" fill="url(#SVGID_12_)" width="1009" height="120.1"/>
		</g>
		<g id="T">
			<defs>
				<path id="SVGID_13_" d="M512.735,9.24V28.14h-27.72v78.96h-21.841V28.14h-27.72V9.24H512.735 M519.735,2.24h-7h-77.281h-7v7
					V28.14v7h7h20.72v71.96v7h7h21.841h7v-7V35.14h20.72h7v-7V9.24V2.24L519.735,2.24z"/>
			</defs>
			<clipPath id="SVGID_14_">
				<use xlink:href="#SVGID_13_"  overflow="visible"/>
			</clipPath>
			<linearGradient id="SVGID_15_" gradientUnits="userSpaceOnUse" x1="500.0415" y1="-3" x2="500.0415" y2="117.1001">
				<stop  offset="0" style="stop-color:#F15C6F"/>
				<stop  offset="1" style="stop-color:#43BFB4"/>
			</linearGradient>
			<rect x="-4.458" y="-3" clip-path="url(#SVGID_14_)" fill="url(#SVGID_15_)" width="1009" height="120.1"/>
		</g>
		<g id="A">
			<defs>
				<path id="SVGID_16_" d="M572.233,9.24l42.279,97.859h-23.24l-9.1-21.141h-41.02l-9.1,21.141h-23.24L551.092,9.24H572.233
					 M549.413,66.779h24.5l-12.18-28.42L549.413,66.779 M576.833,2.24h-4.6h-21.141h-4.602l-1.824,4.224l-42.279,97.859l-4.224,9.776
					h10.65h23.24h4.607l1.822-4.232l7.277-16.908h31.805l7.277,16.908l1.822,4.232h4.607h23.24h10.65l-4.225-9.776L578.659,6.464
					L576.833,2.24L576.833,2.24z M560.077,59.78l1.619-3.736l1.602,3.736H560.077L560.077,59.78z"/>
			</defs>
			<clipPath id="SVGID_17_">
				<use xlink:href="#SVGID_16_"  overflow="visible"/>
			</clipPath>
			<linearGradient id="SVGID_18_" gradientUnits="userSpaceOnUse" x1="500.0415" y1="-3" x2="500.0415" y2="117.1001">
				<stop  offset="0" style="stop-color:#F15C6F"/>
				<stop  offset="1" style="stop-color:#43BFB4"/>
			</linearGradient>
			<rect x="-4.458" y="-3" clip-path="url(#SVGID_17_)" fill="url(#SVGID_18_)" width="1009" height="120.1"/>
		</g>
		<g id="Y">
			<defs>
				<path id="SVGID_19_" d="M695.012,9.24l-33.881,59.219V107.1h-21.84V68.459L605.413,9.24h23.66l21.139,36.399L671.352,9.24
					H695.012 M707.081,2.24h-12.068h-23.66h-4.029l-2.023,3.484l-15.088,25.978L635.125,5.725l-2.023-3.484h-4.029h-23.66h-12.07
					l5.994,10.476l32.955,57.604V107.1v7h7h21.84h7v-7V70.32l32.957-57.604L707.081,2.24L707.081,2.24z"/>
			</defs>
			<clipPath id="SVGID_20_">
				<use xlink:href="#SVGID_19_"  overflow="visible"/>
			</clipPath>
			<linearGradient id="SVGID_21_" gradientUnits="userSpaceOnUse" x1="500.0415" y1="-3" x2="500.0415" y2="117.1001">
				<stop  offset="0" style="stop-color:#F15C6F"/>
				<stop  offset="1" style="stop-color:#43BFB4"/>
			</linearGradient>
			<rect x="-4.458" y="-3" clip-path="url(#SVGID_20_)" fill="url(#SVGID_21_)" width="1009" height="120.1"/>
		</g>
		<g id="L">
			<defs>
				<path id="SVGID_22_" d="M727.352,9.24V87.64h41.719v19.46h-63.559V9.24H727.352 M734.352,2.24h-7h-21.84h-7v7V107.1v7h7h63.559h7
					v-7V87.64v-7h-7h-34.719V9.24V2.24L734.352,2.24z"/>
			</defs>
			<clipPath id="SVGID_23_">
				<use xlink:href="#SVGID_22_"  overflow="visible"/>
			</clipPath>
			<linearGradient id="SVGID_24_" gradientUnits="userSpaceOnUse" x1="500.0415" y1="-3" x2="500.0415" y2="117.1001">
				<stop  offset="0" style="stop-color:#F15C6F"/>
				<stop  offset="1" style="stop-color:#43BFB4"/>
			</linearGradient>
			<rect x="-4.458" y="-3" clip-path="url(#SVGID_23_)" fill="url(#SVGID_24_)" width="1009" height="120.1"/>
		</g>
		<g id="O">
			<defs>
				<path id="SVGID_25_" d="M828.151,7c14.467,0,26.646,4.83,36.541,14.49c9.891,9.659,14.84,21.678,14.84,36.05
					c0,14.374-4.949,26.39-14.84,36.05c-9.895,9.66-22.074,14.49-36.541,14.49c-14.469,0-26.648-4.83-36.539-14.49
					c-9.895-9.66-14.84-21.676-14.84-36.05c0-14.372,4.945-26.391,14.84-36.05C801.502,11.83,813.682,7,828.151,7 M828.221,89.039
					c8.166,0,15.051-3.055,20.65-9.17c5.6-6.111,8.4-13.531,8.4-22.26c0-8.726-2.801-16.17-8.4-22.329
					c-5.6-6.16-12.484-9.24-20.65-9.24c-8.168,0-15.051,3.08-20.65,9.24c-5.6,6.159-8.4,13.604-8.4,22.329
					c0,8.729,2.801,16.148,8.4,22.26C813.17,85.984,820.053,89.039,828.221,89.039 M828.151,0c-16.293,0-30.232,5.545-41.43,16.482
					c-11.246,10.979-16.949,24.793-16.949,41.058c0,16.264,5.703,30.078,16.949,41.059c11.199,10.936,25.137,16.481,41.43,16.481
					c16.289,0,30.229-5.545,41.43-16.481c11.248-10.984,16.951-24.798,16.951-41.059c0-16.262-5.703-30.075-16.949-41.059
					C858.379,5.545,844.44,0,828.151,0L828.151,0z M828.221,82.039c-6.172,0-11.236-2.256-15.488-6.896
					c-4.416-4.82-6.562-10.555-6.562-17.533c0-6.987,2.152-12.751,6.58-17.62c4.25-4.677,9.311-6.949,15.471-6.949
					s11.221,2.272,15.471,6.948c4.428,4.871,6.58,10.635,6.58,17.621c0,6.978-2.146,12.713-6.562,17.531
					C839.458,79.783,834.391,82.039,828.221,82.039L828.221,82.039z"/>
			</defs>
			<clipPath id="SVGID_26_">
				<use xlink:href="#SVGID_25_"  overflow="visible"/>
			</clipPath>
			<linearGradient id="SVGID_27_" gradientUnits="userSpaceOnUse" x1="500.0415" y1="-3" x2="500.0415" y2="117.1001">
				<stop  offset="0" style="stop-color:#F15C6F"/>
				<stop  offset="1" style="stop-color:#43BFB4"/>
			</linearGradient>
			<rect x="-4.458" y="-3" clip-path="url(#SVGID_26_)" fill="url(#SVGID_27_)" width="1009" height="120.1"/>
		</g>
		<g id="R">
			<defs>
				<path id="SVGID_28_" d="M935.11,9.24c15.211,0,26.062,2.567,32.551,7.699c6.484,5.135,9.729,13.395,9.729,24.78
					c0,15.68-6.207,25.808-18.619,30.38l24.779,35H956.67l-21.701-31.221H919.85V107.1h-21.84V9.24H935.11 M919.85,56.979h15.959
					c7.467,0,12.553-1.212,15.26-3.64c2.707-2.426,4.061-6.276,4.061-11.55c0-5.272-1.4-8.891-4.199-10.851
					c-2.801-1.96-7.701-2.939-14.701-2.939H919.85V56.979 M935.11,2.24h-37.1h-7v7V107.1v7h7h21.84h7v-7V82.879h4.461l19.611,28.216
					l2.088,3.005h3.66h26.879h13.533l-7.82-11.045l-20.105-28.398c12.375-8.278,15.232-22.017,15.232-32.937
					c0-13.579-4.166-23.763-12.385-30.269C964.168,5.252,952.1,2.24,935.11,2.24L935.11,2.24z M926.85,35h9.379
					c7.895,0,10.287,1.395,10.686,1.674c0.561,0.393,1.215,1.968,1.215,5.116c0,2.183-0.301,5.054-1.732,6.338
					c-0.211,0.189-2.305,1.852-10.588,1.852h-8.959V35L926.85,35z"/>
			</defs>
			<clipPath id="SVGID_29_">
				<use xlink:href="#SVGID_28_"  overflow="visible"/>
			</clipPath>
			<linearGradient id="SVGID_30_" gradientUnits="userSpaceOnUse" x1="500.0415" y1="-3" x2="500.0415" y2="117.1001">
				<stop  offset="0" style="stop-color:#F15C6F"/>
				<stop  offset="1" style="stop-color:#43BFB4"/>
			</linearGradient>
			<rect x="-4.458" y="-3" clip-path="url(#SVGID_29_)" fill="url(#SVGID_30_)" width="1009" height="120.1"/>
		</g>
	</g>
</svg>